# xmcd CD database file
#
# Track frame offsets:
#	150
#	42560
#	61470
#	81930
#	107685
#	127090
#	165195
#	193782
#	211980
#
# Disc length: 3280 seconds
#
# Revision: 0
# Processed by: cddbd v1.5.2PL0 Copyright (c) Steve Scherf et al.
# Submitted via: CDex 1.70beta2
#
DISCID=7d0cce09
DTITLE=Maouro Orselli - Navigazioni
DYEAR=1994
DGENRE=Jazz
TTITLE0=9,22"
TTITLE1=Moem 4,08"
TTITLE2=4,29"
TTITLE3=5,39"
TTITLE4=Mogm 4,15"
TTITLE5=8,24"
TTITLE6=6,17"
TTITLE7=Mogs 3,59"
TTITLE8=7,31"
EXTD=YEAR: 1994
EXTT0=
EXTT1=
EXTT2=
EXTT3=
EXTT4=
EXTT5=
EXTT6=
EXTT7=
EXTT8=
PLAYORDER=
